<svg version="1.2" xmlns="http://www.w3.org/2000/svg" viewBox="0 0 838 258" width="140.806" height="43.133">
	<style>
		.s0 { fill: #000000 } 
		.s1 { fill: #ed1651 } 
		.s2 { fill: #ffffff } 
	</style>
	<g id="Calque 1">
		<g id="&lt;Group&gt;">
			<g id="&lt;Group&gt;">
				<g id="&lt;Group&gt;">
					<path id="&lt;Compound Path&gt;" fill-rule="evenodd" class="s0" d="m243.78 7.04h36.12c7.56 0 32.52 2.64 32.52 29.76 0 27.6-25.32 30.84-32.04 30.84h-18.72c0 13.8 0 19.2 0 33h-17.88zm32.88 43.32c6.72 0 17.04-1.92 17.04-13.56 0-11.28-10.2-13.32-16.8-13.32h-15.24c0 13.68 0 21 0 26.88z"/>
					<path id="&lt;Compound Path&gt;" class="s0" d="m319.74 33.68h16.56v10.32h0.48c3.36-6.48 9.72-12.24 18.84-12.24 2.04 0 4.08 0.24 6.48 1.2v18.84c-2.76-0.96-6.12-1.32-8.16-1.32-15.6 0-17.4 14.52-17.4 24.24v25.92h-16.8z"/>
					<path id="&lt;Compound Path&gt;" fill-rule="evenodd" class="s0" d="m363.18 67.28c0-20.76 14.16-35.52 34.56-35.52 20.4 0 34.56 14.76 34.56 35.52 0 20.88-14.16 35.4-34.56 35.4-20.4 0-34.56-14.52-34.56-35.4zm34.56 19.32c10.08 0 17.04-8.04 17.04-19.32 0-11.52-6.96-19.44-17.04-19.44-10.08 0-17.16 8.04-17.16 19.44 0 11.28 7.08 19.32 17.16 19.32z"/>
					<path id="&lt;Compound Path&gt;" fill-rule="evenodd" class="s0" d="m441.54 33.68h16.56v9.96h0.24c5.88-8.28 12.96-11.88 21.6-11.88 18.24 0 29.16 15.84 29.16 35.16 0 22.44-14.52 35.76-30.36 35.76-10.08 0-16.68-5.16-20.4-10.68v35.04h-16.8zm33.36 52.92c9.84 0 16.8-8.17 16.8-19.32 0-11.4-7.08-19.44-16.8-19.44-9.72 0-16.92 8.04-16.92 19.44 0 11.4 7.2 19.32 16.92 19.32z"/>
					<path id="&lt;Compound Path&gt;" class="s0" d="m518.46 33.68h16.56v10.32h0.48c3.36-6.48 9.72-12.24 18.84-12.24 2.04 0 4.08 0.24 6.48 1.2v18.84c-2.76-0.96-6.12-1.32-8.16-1.32-15.6 0-17.4 14.52-17.4 24.24v25.92h-16.8z"/>
					<path id="&lt;Compound Path&gt;" class="s0" d="m576.3 2.72c5.88 0 10.32 4.68 10.32 10.2 0 6-4.44 10.68-10.32 10.68-6 0-10.44-4.68-10.44-10.68 0-5.52 4.44-10.2 10.44-10.2zm-8.52 30.96h16.8v66.96h-16.8z"/>
					<path id="&lt;Compound Path&gt;" fill-rule="evenodd" class="s0" d="m593.82 67.52c0-20.64 13.92-35.76 33.47-35.76 16.68 0 32.28 11.04 32.28 35.64v4.56h-48.96c1.44 10.08 9 15.6 17.76 15.6 6.84 0 12.72-3.72 15.72-10.68l15.72 6.36c-4.44 10.92-15.72 19.44-31.32 19.44-19.8 0-34.67-13.92-34.67-35.16zm48.83-7.08c-1.2-10.32-7.92-14.28-15.48-14.28-8.64 0-14.04 5.88-15.72 14.28zm-10.92-56.88h19.8l-18.24 22.2h-14.51z"/>
					<path id="&lt;Compound Path&gt;" class="s0" d="m674.22 79.28v-30.36c-4.44 0-8.76 0-13.2 0v-15.24h13.2c0-6.24 0-12.6 0-18.96h16.8v18.96c6 0 12.12 0 18.12 0v15.24h-18.12c0 8.16 0 16.2 0 24.36 0 6.36 0 14.16 9.12 14.16 3.24 0 6.36-0.96 9-2.4v15.12c-3.37 1.8-7.81 2.52-12.48 2.52-22.44 0-22.44-16.44-22.44-23.4z"/>
					<path id="&lt;Compound Path&gt;" fill-rule="evenodd" class="s0" d="m712.98 67.52c0-20.64 13.92-35.76 33.47-35.76 16.68 0 32.28 11.04 32.28 35.64v4.56h-48.96c1.44 10.08 9 15.6 17.76 15.6 6.84 0 12.72-3.72 15.72-10.68l15.72 6.36c-4.44 10.92-15.72 19.44-31.32 19.44-19.8 0-34.67-13.92-34.67-35.16zm48.83-7.08c-1.2-10.32-7.92-14.28-15.48-14.28-8.64 0-14.04 5.88-15.72 14.28zm-10.92-56.88h19.8l-18.24 22.2h-14.51z"/>
					<path id="&lt;Compound Path&gt;" class="s0" d="m782.7 83.84l15.59-5.04c3 7.44 8.64 10.08 13.45 10.08 3.95 0 8.75-1.56 8.75-6.36 0-4.8-5.04-6.36-9.48-7.68l-7.08-2.16c-8.27-2.52-18.11-7.56-18.11-19.92 0-12.84 10.79-21 25.19-21 13.44 0 22.8 7.32 25.56 16.92l-15.48 5.04c-1.56-4.32-4.68-8.28-10.56-8.28-4.68 0-7.92 2.52-7.92 6.24 0 4.8 6.48 6.84 11.76 8.4l5.16 1.44c6.48 1.8 18.84 5.28 18.84 19.44 0 13.2-10.32 21.72-26.52 21.72-15.24 0-26.03-7.56-29.15-18.84z"/>
					<path id="&lt;Compound Path&gt;" fill-rule="evenodd" class="s1" d="m243.78 115.04h36.12c7.56 0 32.52 2.64 32.52 29.76 0 27.6-25.32 30.84-32.04 30.84h-18.72c0 13.8 0 19.2 0 33h-17.88zm32.88 43.32c6.72 0 17.04-1.92 17.04-13.56 0-11.28-10.2-13.32-16.8-13.32h-15.24c0 13.68 0 21 0 26.88z"/>
					<path id="&lt;Compound Path&gt;" class="s1" d="m319.74 141.68h16.56v10.32h0.48c3.36-6.48 9.72-12.24 18.84-12.24 2.04 0 4.08 0.24 6.48 1.2v18.84c-2.76-0.96-6.12-1.32-8.16-1.32-15.6 0-17.4 14.52-17.4 24.24v25.92h-16.8z"/>
					<path id="&lt;Compound Path&gt;" class="s1" d="m377.58 110.72c5.88 0 10.32 4.68 10.32 10.2 0 6-4.44 10.68-10.32 10.68-6 0-10.44-4.68-10.44-10.68 0-5.52 4.44-10.2 10.44-10.2zm-8.52 30.96h16.8v66.96h-16.8z"/>
					<path id="&lt;Compound Path&gt;" class="s1" d="m391.74 141.68h18.24c5.64 15.48 10.32 30.36 15.84 47.16h0.24c5.52-16.8 10.2-31.68 15.72-47.16h17.76l-23.52 66.96h-20.52z"/>
					<path id="&lt;Compound Path&gt;" fill-rule="evenodd" class="s1" d="m460.02 175.52c0-20.64 13.92-35.76 33.48-35.76 16.68 0 32.28 11.04 32.28 35.64v4.56h-48.96c1.44 10.08 9 15.6 17.76 15.6 6.84 0 12.72-3.72 15.72-10.68l15.72 6.36c-4.44 10.92-15.72 19.44-31.32 19.44-19.8 0-34.68-13.92-34.68-35.16zm48.84-7.08c-1.2-10.32-7.92-14.28-15.48-14.28-8.64 0-14.04 5.88-15.72 14.28zm-10.92-56.88h19.8l-18.24 22.2h-14.52z"/>
					<path id="&lt;Compound Path&gt;" fill-rule="evenodd" class="s1" d="m531.18 175.52c0-20.64 13.92-35.76 33.48-35.76 16.68 0 32.28 11.04 32.28 35.64v4.56h-48.96c1.44 10.08 9 15.6 17.76 15.6 6.84 0 12.72-3.72 15.72-10.68l15.72 6.36c-4.44 10.92-15.72 19.44-31.32 19.44-19.8 0-34.68-13.92-34.68-35.16zm48.84-7.08c-1.2-10.32-7.92-14.28-15.48-14.28-8.64 0-14.04 5.88-15.72 14.28z"/>
					<path id="&lt;Compound Path&gt;" class="s1" d="m600.9 191.84l15.6-5.04c3 7.44 8.64 10.08 13.44 10.08 3.96 0 8.76-1.56 8.76-6.36 0-4.8-5.04-6.36-9.48-7.68l-7.08-2.16c-8.28-2.52-18.12-7.56-18.12-19.92 0-12.84 10.8-21 25.2-21 13.44 0 22.8 7.32 25.56 16.92l-15.48 5.04c-1.56-4.32-4.68-8.28-10.56-8.28-4.68 0-7.92 2.52-7.92 6.24 0 4.8 6.48 6.84 11.76 8.4l5.16 1.44c6.48 1.8 18.84 5.28 18.84 19.44 0 13.2-10.32 21.72-26.52 21.72-15.24 0-26.04-7.56-29.16-18.84z"/>
				</g>
			</g>
			<g id="&lt;Group&gt;">
				<g id="&lt;Group&gt;">
					<path id="&lt;Path&gt;" class="s1" d="m162.1 0.38h-109.32c-29.05 0-52.61 23.55-52.61 52.61v122.74 40.76 30.41c0 8.22 9.5 12.8 15.93 7.68l45.91-36.52c1.28-1.02 2.87-1.57 4.5-1.57h95.59c29.05 0 52.61-23.56 52.61-52.61v-110.89c0-29.06-23.56-52.61-52.61-52.61z"/>
				</g>
				<path id="&lt;Path&gt;" class="s2" d="m168.12 37.67h-121.99c-7.9 0-14.32 6.42-14.32 14.31v126.74h15.82v-125.21l119.63 0.07-0.07 109.25h-88.12c-1.11 0-2.01-0.91-2.01-2.01v-41.4l30.44-29 30.3 28.98 0.02 25.65h15.82v-29.02c0-2.15-0.89-4.24-2.44-5.72l-12.32-11.77v-19.32h-12.93v6.95l-13.04-12.47c-1.48-1.41-3.42-2.19-5.47-2.19-2.04 0-3.98 0.78-5.46 2.19l-38.31 36.62c-1.55 1.5-2.43 3.58-2.43 5.72v48.28c0.01 7.94 6.49 14.4 14.43 14.4h91.82c8.6 0 15.59-6.99 15.59-15.59v-110.5c0-8.25-6.71-14.96-14.96-14.96z"/>
			</g>
		</g>
	</g>
</svg>